<?xml version="1.0" encoding="iso-8859-1"?>
<!-- Generator: Adobe Illustrator 19.0.0, SVG Export Plug-In . SVG Version: 6.00 Build 0)  -->
<svg version="1.1" id="Capa_1" xmlns="http://www.w3.org/2000/svg" xmlns:xlink="http://www.w3.org/1999/xlink" x="0px" y="0px"
	 viewBox="0 0 512 512" style="enable-background:new 0 0 512 512;" xml:space="preserve">
<g>
	<g>
		<path d="M437.019,74.981C388.667,26.629,324.38,0,256,0S123.333,26.629,74.981,74.981C26.629,123.333,0,187.62,0,256
			s26.629,132.667,74.981,181.019C123.333,485.371,187.62,512,256,512s132.667-26.629,181.019-74.981
			C485.371,388.667,512,324.38,512,256S485.371,123.333,437.019,74.981z M256,472c-119.103,0-216-96.897-216-216S136.897,40,256,40
			s216,96.897,216,216S375.103,472,256,472z"/>
	</g>
</g>
<g>
	<g>
		<path d="M256,120c-52.935,0-96,43.065-96,96s43.065,96,96,96s96-43.065,96-96S308.935,120,256,120z M256,272
			c-30.879,0-56-25.122-56-56s25.121-56,56-56s56,25.122,56,56S286.879,272,256,272z"/>
	</g>
</g>
<g>
	<g>
		<circle cx="256" cy="384" r="32"/>
	</g>
</g>
<g>
</g>
<g>
</g>
<g>
</g>
<g>
</g>
<g>
</g>
<g>
</g>
<g>
</g>
<g>
</g>
<g>
</g>
<g>
</g>
<g>
</g>
<g>
</g>
<g>
</g>
<g>
</g>
<g>
</g>
</svg> 